<svg xmlns="http://www.w3.org/2000/svg" viewBox="0 0 64 64" role="img" aria-label="AI Citation Auditor favicon">
  <rect width="64" height="64" rx="16" fill="#070A12"/>
  <rect x="6" y="6" width="52" height="52" rx="14" fill="none" stroke="#06B6D4" stroke-width="3"/>
  <path d="M40.7 43.2c-2.6 2.2-5.7 3.3-9.3 3.3-4.4 0-8-1.4-10.7-4.1-2.7-2.8-4.1-6.4-4.1-10.8s1.4-8 4.2-10.8c2.8-2.8 6.4-4.2 10.9-4.2 3.4 0 6.4 1 8.9 3.1l-3.4 5.1c-1.7-1.3-3.5-2-5.5-2-2.5 0-4.4.8-5.8 2.4-1.4 1.6-2.1 3.7-2.1 6.4s.7 4.8 2.1 6.4c1.4 1.6 3.3 2.4 5.8 2.4 2.1 0 4-.7 5.7-2.2l3.3 5z" fill="#F8FAFC"/>
  <circle cx="47" cy="17" r="5" fill="#3B82F6"/>
</svg>
